<svg width="512" height="512" viewBox="0 0 512 512" fill="none" xmlns="http://www.w3.org/2000/svg">
  <rect width="512" height="512" rx="64" fill="#2c5aa0"/>
  <circle cx="256" cy="256" r="160" fill="none" stroke="#ffffff" stroke-width="16"/>
  <circle cx="256" cy="256" r="90" fill="none" stroke="#ffd700" stroke-width="12"/>
  <circle cx="256" cy="256" r="40" fill="#ffd700"/>
  
  <!-- Partículas de zinco -->
  <circle cx="180" cy="180" r="12" fill="#ffd700" opacity="0.8"/>
  <circle cx="332" cy="180" r="12" fill="#ffd700" opacity="0.8"/>
  <circle cx="180" cy="332" r="12" fill="#ffd700" opacity="0.8"/>
  <circle cx="332" cy="332" r="12" fill="#ffd700" opacity="0.8"/>
  <circle cx="256" cy="120" r="8" fill="#ffd700" opacity="0.6"/>
  <circle cx="256" cy="392" r="8" fill="#ffd700" opacity="0.6"/>
  <circle cx="120" cy="256" r="8" fill="#ffd700" opacity="0.6"/>
  <circle cx="392" cy="256" r="8" fill="#ffd700" opacity="0.6"/>
  
  <!-- Efeito spark -->
  <g opacity="0.7">
    <path d="M256 200 L256 180 M246 190 L266 190" stroke="#ffd700" stroke-width="4"/>
    <path d="M256 312 L256 332 M246 322 L266 322" stroke="#ffd700" stroke-width="4"/>
    <path d="M200 256 L180 256 M190 246 L190 266" stroke="#ffd700" stroke-width="4"/>
    <path d="M312 256 L332 256 M322 246 L322 266" stroke="#ffd700" stroke-width="4"/>
  </g>
  
  <!-- Texto -->
  <text x="256" y="450" text-anchor="middle" fill="#ffffff" font-family="Arial" font-size="42" font-weight="bold">BIOQUÍMICA</text>
  <text x="256" y="480" text-anchor="middle" fill="#ffffff" font-family="Arial" font-size="24" opacity="0.8">ZINC SPARK</text>
</svg>